<svg xmlns="http://www.w3.org/2000/svg" version="1.1" xmlns:xlink="http://www.w3.org/1999/xlink" xmlns:svgjs="http://svgjs.dev/svgjs" width="1440" height="778" preserveAspectRatio="none" viewBox="0 0 1440 778"><g mask="url(&quot;#SvgjsMask1103&quot;)" fill="none"><rect width="1440" height="778" x="0" y="0" fill="rgba(5, 21, 63, 1)"></rect><path d="M0,615.806C131.097,622.712,275.177,671.005,385.532,599.9C495.876,528.802,516.668,379.575,559.309,255.428C598.058,142.611,625.733,29.762,622.313,-89.475C618.544,-220.884,619.074,-362.745,538.597,-466.697C456.825,-572.322,321.141,-621.387,190.173,-647.669C66.301,-672.527,-58.645,-648.124,-179.338,-610.769C-298.563,-573.868,-428.053,-535.339,-500.684,-433.845C-571.616,-334.726,-554.454,-202.162,-558.911,-80.359C-562.918,29.13,-557.772,135.263,-525.341,239.915C-489.018,357.128,-460.078,489.203,-360.281,560.609C-259.431,632.769,-123.835,609.282,0,615.806" fill="#04102f"></path><path d="M1440 1260.941C1543.64 1269.652 1652.329 1299.537 1745.605 1253.53 1842.262 1205.855 1912.625 1111.843 1948.403 1010.1800000000001 1982.7359999999999 912.624 1939.745 809.784 1938.165 706.375 1936.2930000000001 583.8679999999999 2005.292 448.813 1938.259 346.256 1871.384 243.94100000000003 1728.329 228.84400000000005 1608.933 202.668 1496.366 177.98900000000003 1382.021 171.83299999999997 1270.225 199.79899999999998 1155.085 228.601 1048.0430000000001 281.949 962.616 364.345 871.767 451.97 789.139 556.903 770.544 681.747 751.913 806.832 785.427 941.2139999999999 861.662 1042.118 932.386 1135.7269999999999 1055.988 1163.2730000000001 1165.718 1204.791 1254.807 1238.499 1345.0819999999999 1252.963 1440 1260.941" fill="#061b4f"></path></g><defs><mask id="SvgjsMask1103"><rect width="1440" height="778" fill="#ffffff"></rect></mask></defs></svg>